<?xml version="1.0" encoding="utf-8"?>
<!-- Svg Vector Icons : http://www.onlinewebfonts.com/icon -->
<!DOCTYPE svg PUBLIC "-//W3C//DTD SVG 1.1//EN" "http://www.w3.org/Graphics/SVG/1.1/DTD/svg11.dtd">
<svg version="1.1" xmlns="http://www.w3.org/2000/svg" xmlns:xlink="http://www.w3.org/1999/xlink" x="0px" y="0px" viewBox="0 0 1000 1000" enable-background="new 0 0 1000 1000" xml:space="preserve">
<metadata> Svg Vector Icons : http://www.onlinewebfonts.com/icon </metadata>
<g><g><g><path d="M747.5,276.6c46.2,0,83.7-37.6,83.7-83.7c0-46.2-37.6-83.7-83.7-83.7c-46.2,0-83.8,37.6-83.8,83.7C663.7,239,701.3,276.6,747.5,276.6z M747.5,135c31.9,0,57.9,26,57.9,57.9c0,31.9-26,57.9-57.9,57.9c-32,0-58-26-58-57.9C689.5,160.9,715.5,135,747.5,135z"/><path d="M252.6,274.6c46.2,0,83.7-37.6,83.7-83.7c0-46.2-37.6-83.7-83.7-83.7c-46.2,0-83.8,37.6-83.8,83.7C168.8,237,206.4,274.6,252.6,274.6z M252.6,132.9c31.9,0,57.9,26,57.9,57.9c0,31.9-26,57.9-57.9,57.9c-32,0-58-26-58-57.9C194.6,158.9,220.6,132.9,252.6,132.9z"/><path d="M324.4,679.8h-2.4c-25.7,0-48.1-23-48.1-48.7V339.2c0-9.7,2.4-19.7,5.7-29.7c1.3-3.9,1-8.4-1.4-11.8c-2.4-3.4-6-5.5-10.1-5.5H166.9c-40.3,0-74,36.7-74,68v236.5c0,7.1,8.3,12.1,15.4,12.1h36.3v266.4c0,7.1,6.8,11.5,13.9,11.5h165.8c7.1,0,14.1-4.3,14.1-11.5V690.6C338.4,683.5,331.5,679.8,324.4,679.8z M312.6,860.8H170.4V596.6c0-7.1-4.8-13.7-11.9-13.7h-39.8V360.1c0-16.8,21.7-42.2,48.2-42.2h84.5c-1.3,6.5-3.4,14.3-3.4,21.2v291.9c0,36.4,25.8,66.6,64.6,71.7V860.8z"/><path d="M693.9,631.1V339.2c0-38.1-37.9-79.4-88.2-79.4H394.3c-48,0-88.1,42.2-88.1,79.4v291.9c0,7.1,8.6,10,15.8,10h48.8v333.8c0,7.1,6,15.2,13.2,15.2h232.1c7.1,0,13.2-8,13.2-15.2V641h48.8C685.2,641,693.9,638.2,693.9,631.1z M668,615.2h-51.9c-7.1,0-12.7,8.7-12.7,15.9v333.1H396.6V631.1c0-7.1-5.5-15.9-12.7-15.9H332v-276c0-22,27.8-53.5,62.3-53.5h211.4c36.3,0,62.3,31.3,62.3,53.5L668,615.2L668,615.2z"/><path d="M500,210.7c55.3,0,100.3-45,100.3-100.3C600.3,55,555.3,10,500,10c-55.4,0-100.4,45-100.4,100.3C399.6,165.7,444.7,210.7,500,210.7z M500,35.8c41.1,0,74.5,33.4,74.5,74.5c0,41.1-33.4,74.5-74.5,74.5c-41.1,0-74.6-33.4-74.6-74.5C425.5,69.3,458.9,35.8,500,35.8z"/><path d="M833.1,292.1H732.7c-4.1,0-7.9,3.1-10.4,6.4c-2.4,3.3-2.4,8.1-1.3,12c2.9,9.6,5.1,19.7,5.1,28.7v291.9c0,25.7-22.4,48.7-48.1,48.7h-2.4c-7.1,0-14.1,3.7-14.1,10.8v186.5c0,7.1,6.9,15.9,14.1,15.9h165.9c7.1,0,13.9-8.8,13.9-15.9V608.7h36.3c7.1,0,15.4-3,15.4-10.1V362.2C907.1,330.2,875.3,292.1,833.1,292.1z M881.3,582.9h-39.8c-7.1,0-11.9,8.6-11.9,15.8v268.6H687.4V702.8c38.8-5.1,64.6-35.3,64.6-71.7V339.2c0-6.2-2-14.8-3.1-21.2h84.1c27.9,0,48.2,27.2,48.2,44.2V582.9L881.3,582.9z"/></g></g><g></g><g></g><g></g><g></g><g></g><g></g><g></g><g></g><g></g><g></g><g></g><g></g><g></g><g></g><g></g></g>
</svg>