<?xml version="1.0" encoding="iso-8859-1"?>
<!-- Generator: Adobe Illustrator 16.0.0, SVG Export Plug-In . SVG Version: 6.00 Build 0)  -->
<!DOCTYPE svg PUBLIC "-//W3C//DTD SVG 1.1//EN" "http://www.w3.org/Graphics/SVG/1.1/DTD/svg11.dtd">
<svg version="1.1" id="Capa_1" xmlns="http://www.w3.org/2000/svg" xmlns:xlink="http://www.w3.org/1999/xlink" x="0px" y="0px"
	 width="612.01px" height="612.01px" viewBox="0 0 612.01 612.01" style="enable-background:new 0 0 612.01 612.01;"
	 xml:space="preserve">
<g>
	<g>
		<path d="M306,612.01c-168.733,0-305.995-137.282-305.995-306.015S137.267,0,306,0s306.005,137.262,306.005,305.995
			S474.723,612.01,306,612.01z M306,20.226c-157.569,0-285.77,128.201-285.77,285.769c0,157.579,128.201,285.79,285.77,285.79
			c157.578,0,285.779-128.211,285.779-285.79C591.779,148.426,463.578,20.226,306,20.226z M306,519.528
			c-41.635,0-82.005-12.024-116.773-34.769c-20.054-13.137-78.263-64.409-78.263-104.77c0-15.775,12.833-28.599,28.599-28.599
			h332.895c15.776,0,28.6,12.833,28.6,28.599c0,40.401-58.22,91.653-78.283,104.77C388.025,507.504,347.645,519.528,306,519.528z
			 M139.562,371.607c-4.622,0-8.374,3.751-8.374,8.373c0,26.425,44.75,71.893,69.122,87.851
			c31.451,20.59,68.009,31.471,105.689,31.471c37.711,0,74.259-10.881,105.699-31.471c24.372-15.928,69.132-61.386,69.132-87.851
			c0-4.622-3.752-8.373-8.374-8.373H139.562z M416.968,260.648c-31.066,0-56.349-25.282-56.349-56.349s25.282-56.349,56.349-56.349
			c31.057,0,56.329,25.282,56.329,56.349S448.035,260.648,416.968,260.648z M416.968,168.167c-19.922,0-36.123,16.211-36.123,36.123
			c0,19.913,16.211,36.124,36.123,36.124c19.913,0,36.104-16.211,36.104-36.124C453.071,184.377,436.881,168.167,416.968,168.167z
			 M195.042,260.648c-31.067,0-56.339-25.282-56.339-56.349s25.272-56.349,56.339-56.349s56.349,25.282,56.349,56.349
			S226.108,260.648,195.042,260.648z M195.042,168.167c-19.912,0-36.113,16.211-36.113,36.123c0,19.913,16.201,36.124,36.113,36.124
			c19.922,0,36.123-16.211,36.123-36.124C231.165,184.377,214.964,168.167,195.042,168.167z"/>
	</g>
</g>
<g>
</g>
<g>
</g>
<g>
</g>
<g>
</g>
<g>
</g>
<g>
</g>
<g>
</g>
<g>
</g>
<g>
</g>
<g>
</g>
<g>
</g>
<g>
</g>
<g>
</g>
<g>
</g>
<g>
</g>
</svg>
