<?xml version="1.0" encoding="iso-8859-1"?>
<!-- Generator: Adobe Illustrator 16.0.0, SVG Export Plug-In . SVG Version: 6.00 Build 0)  -->
<!DOCTYPE svg PUBLIC "-//W3C//DTD SVG 1.1//EN" "http://www.w3.org/Graphics/SVG/1.1/DTD/svg11.dtd">
<svg version="1.1" id="Capa_1" xmlns="http://www.w3.org/2000/svg" xmlns:xlink="http://www.w3.org/1999/xlink" x="0px" y="0px"
	 width="612px" height="612px" viewBox="0 0 612 612" style="enable-background:new 0 0 612 612;" xml:space="preserve">
<g>
	<g>
		<path d="M306.986,565.294l-0.951-0.03c-0.415,0.01-0.95,0.03-1.062,0.03c-7.615,0-14.765-2.983-20.145-8.384
			c-41.2-41.2-82.177-82.662-123.165-124.125c-38.55-38.995-77.09-78.011-115.843-116.804
			c-14.461-14.603-25.798-31.572-33.686-50.453C4.076,246.192,0,225.754,0,204.78c0-42.231,16.443-81.934,46.287-111.777
			C76.16,63.15,115.853,46.706,158.044,46.706c20.994,0,41.453,4.086,60.778,12.156c19.396,8.101,36.709,19.74,51.464,34.626
			l35.698,35.719l35.749-35.749c14.735-14.855,32.048-26.496,51.455-34.596c19.325-8.07,39.764-12.156,60.758-12.156
			c42.211,0,81.904,16.444,111.757,46.297C595.557,122.876,612,162.58,612,204.78c0,20.974-4.086,41.412-12.155,60.738
			c-7.828,18.82-19.154,35.8-33.626,50.423c-38.884,38.935-77.535,78.041-116.187,117.146
			c-40.866,41.362-81.752,82.733-122.861,123.843C321.761,562.32,314.601,565.294,306.986,565.294z M306.349,545.048
			c0.091,0,0.162,0,0.192,0.01l0.455,0.011c2.215,0,4.298-0.87,5.865-2.438c41.079-41.089,81.944-82.42,122.791-123.751
			c38.671-39.137,77.343-78.264,116.217-117.198c12.61-12.732,22.48-27.527,29.307-43.94c7.028-16.858,10.599-34.677,10.599-52.961
			c0-36.811-14.34-71.417-40.371-97.478c-26.04-26.031-60.656-40.371-97.457-40.371c-18.305,0-36.123,3.56-52.972,10.598
			c-16.929,7.059-32.037,17.222-44.9,30.197l-42.93,42.929c-1.901,1.901-4.46,2.963-7.149,2.963l0,0c-2.69,0-5.249-1.072-7.15-2.963
			l-42.878-42.898c-12.894-13.005-27.993-23.169-44.911-30.228c-16.869-7.039-34.708-10.598-53.012-10.598
			c-36.791,0-71.407,14.34-97.458,40.371c-26.03,26.03-40.36,60.646-40.36,97.478c0,18.294,3.56,36.113,10.578,52.951
			c6.877,16.464,16.757,31.259,29.358,43.981c38.752,38.792,77.312,77.818,115.893,116.864
			c40.947,41.433,81.904,82.865,123.094,124.064c1.567,1.578,3.631,2.438,5.825,2.438
			C305.125,545.068,305.955,545.048,306.349,545.048z"/>
	</g>
</g>
<g>
</g>
<g>
</g>
<g>
</g>
<g>
</g>
<g>
</g>
<g>
</g>
<g>
</g>
<g>
</g>
<g>
</g>
<g>
</g>
<g>
</g>
<g>
</g>
<g>
</g>
<g>
</g>
<g>
</g>
</svg>
